<svg width="375" height="375" viewBox="0 0 375 375" xmlns="http://www.w3.org/2000/svg"><style>@keyframes top-bottom{0%{transform:translate(0,-15px)}to{transform:translate(0,25px)}}</style><defs><linearGradient x1="50%" y1="1.227%" x2="50%" y2="100%" id="linearGradient-1"><stop stop-color="gray" offset="0%"/><stop stop-color="#8D8D8D" stop-opacity="0" offset="100%"/></linearGradient></defs><g id="画板" fill="none" fill-rule="evenodd"><g id="编组-4备份"><path id="路径" fill="url(#linearGradient-1)" d="M225.237 161.604l-2.797-60.136H219L227.396 88l8.747 13.468h-3.772l-2.232 60.136z"/><g style="animation:top-bottom 1s ease-in-out alternate-reverse infinite"><g id="编组" transform="rotate(-45 327.587 -173.22)" stroke-linecap="round" stroke-width="1.5"><path d="M4.777 26.872v-5.69a2.388 2.388 0 1 0-4.777 0v4.889c0 2.3.72 4.543 2.057 6.414l2.72 3.804" id="Stroke-1" stroke="#A7A7A7"/><path d="M4.777 25.453V6.355a2.355 2.355 0 1 1 4.71 0v17.12" id="Stroke-3" stroke="#A7A7A7"/><path d="M2.174 3.689a5.002 5.002 0 0 1 9.577-.25" id="路径" stroke="#787878"/><path d="M9.487 21.58v-7.23a2.322 2.322 0 1 1 4.644 0v7.23" id="Stroke-5" stroke="#A7A7A7"/><path d="M14.13 20.245v-4.183c0-1.074 1.055-1.945 2.356-1.945 1.3 0 2.355.87 2.355 1.945v4.183" id="Stroke-7" stroke="#A7A7A7"/><path d="M18.84 20.786v-1.848a2.421 2.421 0 1 1 4.844 0v5.774c0 2.85-.65 5.663-1.899 8.226l-1.788 3.668" id="Stroke-9" stroke="#A7A7A7"/></g></g><path id="路径备份" fill="url(#linearGradient-1)" transform="matrix(1 0 0 -1 0 487.604)" d="M225.237 280.604l-2.797-60.136H219L227.396 207l8.747 13.468h-3.772l-2.232 60.136z"/><g id="编组-3" transform="rotate(-2 3400.238 -309.36)" fill="#D8D8D8"><path d="M94.41 4.542c50.02-4.609 80.37-5.737 94.719.251 14.348 5.988 22.913 23.035 15.175 34.922-7.738 11.887-9.456 11.827-12.704 16.987-2.165 3.44-1.854 8.269.932 14.484 3.107 1.19 1.2 1.19-5.722 0-6.921-1.19-13.25-5.758-18.988-13.706-52.413 7.278-86.425 12.392-102.036 15.344C42.371 77.252-2.392 72.276.122 43.337 2.636 14.398 44.39 9.15 94.41 4.542zm90.566 3.162c-12.461-5.518-67.782-2.769-79.297-2.769-11.244 0-32.804 2.925-54.956 6.151l-1.602.234c-15.14 2.212-27.662 7.385-37.567 15.521-2.118 1.927-4.1 5.999-5.943 12.214C2.845 48.38 9.9 64.452 24.577 69.25c14.675 4.799 41.027 1.304 51.572 0 10.546-1.303 90.815-15.196 94.464-13.28 6.835 10.473 17.176 14.192 20.493 14.878-1.086-6.82-3.559-10.433 1.289-17.702 4.847-7.27 8.033-9.18 10.546-18.438s-5.504-21.486-17.965-27.004z" id="形状结合" opacity=".932"/><path d="M180.594 50.39c-2.91-12.976 4.552-22.364 22.388-28.163-15.413 5.799-22.876 15.187-22.388 28.164z" id="路径-5备份-2" transform="rotate(154 191.482 36.309)"/><path d="M7.686 22.872c4.786-9.946 13.836-15.855 27.152-17.727-11.25 2.449-20.3 8.358-27.152 17.727z" id="路径-5备份" transform="rotate(8 21.262 14.009)"/><path d="M29.78 81.243c-1.655 3.066-2.373 5.247-2.154 6.542.328 1.944 2.568 1.944 2.887 0 .213-1.295-.031-3.476-.733-6.542z" id="路径-6" transform="rotate(30 29.088 85.243)"/><path d="M36.208 84.29c-1.655 3.832-2.373 6.558-2.154 8.177.329 2.43 2.569 2.43 2.887 0 .213-1.62-.031-4.345-.733-8.178z" id="路径-6备份" transform="rotate(-8 35.516 89.29)"/></g><path d="M79.888 144.97l1.41-2.206 2.565 1.875.825-1.125-2.64-1.92 1.71-2.7-1.2-.75-1.665 2.61-1.155-.855 1.5-3.465 2.925.27.15-1.41-2.475-.225.735-1.68-1.29-.57-.915 2.115-1.98-.195-.12 1.41 1.5.15-1.545 3.54.24.855 1.68 1.23-1.455 2.295 1.2.75zm5.91-.676l2.94-.105.675-.66.525-8.265-.72-.75-3.795.165-.675.735.3 8.205.75.675zm.645-1.425l-.255-6.825 2.295-.09-.435 6.84-1.605.075zm7.74 2.07l3.39-2.625-.81-1.065 1.485-.21.18 3.48 1.425-.075-.195-3.6 4.5-.63-.195-1.425-4.395.63-.03-.585 2.97-.15.675-.66.375-4.41-.72-.765-8.115.225-.675.75.135 2.205-.705.12.225 1.41.585-.09.06.915.75.66 3.045-.15.03.72-4.365.63.195 1.395 2.565-.36-3.255 2.535.87 1.125zm5.28-7.545l-.045-.78 1.56-.27-.24-1.41-1.395.24-.015-.435-1.395.075.03.585-2.37.405-.09-1.32 6.57-.195-.27 2.985-2.34.12zm-3.75.195l-.03-.36 2.355-.39.03.63-2.355.12zm8.385 7.095l.765-1.2-4.14-2.64-.765 1.2 4.14 2.64zm5.325.255l3.645-6.285 6.795-.495-.105-1.425-5.82.435 1.545-2.655 3.795.18.075-1.41-10.305-.51-.075 1.41 4.92.24-1.68 2.88-4.5.33.09 1.41 3.555-.255-3.18 5.445 1.245.705zm5.94.075l5.1-1.14-.3-1.365-4.35.975-.45-3.72-1.41.18.57 4.47.84.6zm14.73.15l1.395-3.885.03-.225.15-5.565-1.41-.045-.135 4.575-.24.045.21-5.265 1.47-1.02-.795-1.155-1.755 1.215-.33.54-.255 6.51.825.735.645-.12-1.14 3.195 1.335.465zm-2.355.03l.045-2.385 1.02-.36-.465-1.335-.51.18.15-6.675h.48l.03-1.395-5.37-.105-.015 1.425.675.015-.03 1.095-.54-.06-.12 1.41.63.06-.135 5.715-.84.3.465 1.335 3.15-1.11-.045 1.86 1.425.03zm4.155 0l1.425-.015-.15-10.605h.6l.24 7.5-.555.675 1.065.915.75-.885.165-.48-.27-8.46-.72-.69h-1.98l-.72.72.15 11.325zm-5.355-9.285l-1.365-.12.03-1.215 1.365.03-.03 1.305zm-1.44 3.21l.045-1.92 1.365.135-.045 1.695-1.365.09zm-.075 3.165l.045-1.77 1.35-.06-.03 1.35-1.365.48zm19.065 3.555l1.425-2.535-.3-.855-1.635-.66-.45 1.125 1.005.42-1.095 1.95 1.05.555zM29.803 162.88l5.775-.6.645-.69v-8.835l1.635.06.03-1.425-12.54-.465-.06 1.425 9.525.36v8.25l-5.13.525.12 1.395zm-1.74-2.445l4.05-.375.645-.57.87-4.455-.645-.855-5.775-.24-.735.825.84 5.085.75.585zm.525-1.47l-.585-3.555 4.095.15-.615 3.15-2.895.255zm17.85 3.93l2.145-4.71 2.895 3.63 1.11-.885-3.345-4.185 2.385-5.22-1.29-.6-5.19 11.415 1.29.555zm-4.65-.48l3.66-3.27-.945-1.05-2.43 2.175.255-9.255-1.41-.045-.315 10.905 1.185.54zm4.14-6.66l1.29-.585-1.77-3.945-1.305.57 1.785 3.96zm21.285 7.305l.795-1.14-1.77-1.26-1.275-6.315 2.925-.225-.12-1.425-.675.06-.615-1.845-1.335.45.495 1.5-.96.075-.495-2.46-1.38.27.45 2.295-3.99.285.105 1.425 4.17-.3 1.365 6.765.285.435 2.025 1.41zm-9.36-9.15l.855-1.125-2.415-1.86-.855 1.14 2.415 1.845zm1.365 9.405l4.665-1.815-.525-1.305-1.635.645.33-3.84 1.05.06.09-1.41-3.855-.24-.105 1.41 1.41.09-.375 4.5-1.53.6-.525-1.215-1.125.48 1.44-5.79-.57-.885-2.565-.39-.225 1.38 1.8.285-1.605 6.45.945.81 2.415-1.035.495 1.215zm22.995-.255l.795-1.14-1.77-1.26-1.275-6.315 2.925-.225-.12-1.425-.675.06-.615-1.845-1.335.45.495 1.5-.96.075-.495-2.46-1.38.27.45 2.295-3.99.285.105 1.425 4.17-.3 1.365 6.765.285.435 2.025 1.41zm-9.36-9.15l.855-1.125-2.415-1.86-.855 1.14 2.415 1.845zm1.365 9.405l4.665-1.815-.525-1.305-1.635.645.33-3.84 1.05.06.09-1.41-3.855-.24-.105 1.41 1.41.09-.375 4.5-1.53.6-.525-1.215-1.125.48 1.44-5.79-.57-.885-2.565-.39-.225 1.38 1.8.285-1.605 6.45.945.81 2.415-1.035.495 1.215zm11.295-.705l12.195-.345-.03-1.41-5.52.165-.225-4.755 4.35-.705-.225-1.395-4.2.66-.165-3.63-1.425.06.48 9.81-5.28.15.045 1.395zm21.045.06l.585-9.96 5.595-.165-.06-1.395-12.24.345.045 1.41 5.22-.15-.57 9.84 1.425.075zm4.47-3.555l1.005-.99-3.33-3.33-.99 1.02 3.315 3.3zm10.14-6.345l.72-1.2-2.115-1.275-.735 1.2 2.13 1.275zm1.05 10.725l.945-1.05-3.42-3.15 2.625-2.22-.93-1.08-2.235 1.905-.3-2.46 2.805-.57-.285-1.38-2.685.54-.375-3.255-1.395.15.39 3.375-1.935.39.285 1.38 1.815-.36.375 3.3-2.415 2.055.915 1.08 2.265-1.935 3.555 3.285zm3.54-.495l1.605-1.485.255-.51.12-10.215-1.395-.015-.15 9.915-1.38 1.26.945 1.05zm-1.995-3.21l1.41-.135-.615-6.855-1.41.12.615 6.87zm13.92 3.39l1.845-9.285 1.485-.195.435 7.2-2.34.975.54 1.29 2.805-1.14.435-.69-.51-8.475-.795-.66-1.755.24.3-1.53-1.38-.285-.405 2.01-1.74.225.195 1.395 1.245-.165-1.755 8.82 1.395.27zm-2.295-10.245l.075-1.41-4.41-.21-.045 1.41 4.38.21zm-.855 10.245l1.365-.315-.84-3.66-1.395.33.345 1.485-2.025.21 1.77-5.175 2.28-.105-.075-1.425-5.655.255.06 1.425 1.86-.075-1.935 5.685.735.915 3.315-.33.195.78zm17.535-.48l2.295-9.75 2.13.255-.18 6.825-2.565.93.495 1.335 3.015-1.11.465-.66.195-7.95-.63-.705-6.42-.765-.18 1.395 2.265.285-2.265 9.585 1.38.33zm-4.125-.555l2.325-1.065-.585-1.305-1.29.6.165-5.385 2.085-.465-.3-1.38-1.74.39.06-1.71-1.395-.045-.075 2.07-1.92.42.3 1.38 1.56-.345-.21 6.18 1.02.66zm17.64 1.035l2.07-3.435 5.04-.21-.06-1.395-.87.045.78-3.255-.735-.885-.69.06.69-.72-.45-1.17-4.125-.42.285-.825-1.335-.45-1.005 2.97 1.335.45.255-.765 3.015.285-.765.825-3.435.3-.63.855.63 2.985-1.155.045.06 1.41 1.47-.06-1.59 2.625 1.215.735zm-4.215-.015l2.01-.825.435-.735-.33-3 1.35-.495-.48-1.32-1.02.36-.24-2.205 1.275.06.075-1.41-1.5-.075-.285-2.64-1.395.15.255 2.43-.75-.045-.075 1.395.975.06.285 2.775-1.485.525.495 1.335 1.155-.405.225 2.13-1.5.63.525 1.305zm7.155-4.86l1.62-2.685.81-.075-.66 2.7-1.77.06zm-1.56-.15l-.45-2.235 1.89-.15-1.44 2.385zm4.665 5.13l.84-1.14-2.835-2.055-.84 1.125 2.835 2.07zm3.72-7.065l6.45-.615-.135-1.41-2.205.21-.045-1.26 1.95-.375-.27-1.38-1.71.33-.045-1.5-1.425.045.12 4.275-.48.045-.285-2.565-1.395.15.27 2.55-.945.09.15 1.41zm12.705 3.12l.42-4.755-.735-.765-2.04.105.69-1.95 1.56-.06-.06-1.41-5.64.21.045 1.395 2.565-.09-.69 1.965-1.515.075-.675.75.225 4.335 1.41-.06-.195-3.63 3.57-.165-.345 3.915 1.41.135zm-5.4 4.245l1.785-3.015 2.73 2.76 1.02-.975-2.94-2.985-.24.24 1.47-2.49-1.215-.705-3.825 6.465 1.215.705zm-5.7-.315l4.92-4.515-.96-1.05-1.14 1.065v-2.355h-1.41v3.66l-2.37 2.19.96 1.005zm-1.125-2.85l2.145-2.88-1.155-.825-2.115 2.88 1.125.825zm25.38 1.125l.78-.645.525-6.225-.735-.78-3.285.12.525-.6 3.915-.225-.075-1.425-2.115.12.36-.885-1.32-.555-.63 1.53-1.965.105-.525-1.335-1.32.525.36.9-2.07.105.075 1.425 3.345-.18-.48.57-1.77.06-.69.72.075 5.475.645.72 6.375.48zm-8.13-8.73l.105-1.425-2.79-.225-.09 1.425 2.775.225zm9.69 10.53l.015-1.425-10.68-.18 1.59-6.75-.6-.87-2.64-.345-.21 1.395 1.875.27-1.605 6.825.69.885 11.565.195zm-2.16-3.27l-5.025-.375-.03-2.385 1.815.03-.69.555.36 1.245 2.955.405.195-1.41-1.275-.165.915-.72-.435-1.275-3.84-.09v-.345l5.475-.195-.42 4.725z" id="如果无聊，可以试试上下划动切换频道" fill="#FFF" fill-rule="nonzero" transform="rotate(-9 114.11 148.104)"/></g></g></svg>