<svg id="e7dz8dwuw3471" xmlns="http://www.w3.org/2000/svg" xmlns:xlink="http://www.w3.org/1999/xlink" viewBox="0 0 115 110" shape-rendering="geometricPrecision" text-rendering="geometricPrecision">
	<style>
		<![CDATA[
		#e7dz8dwuw3477_tr {
			animation: e7dz8dwuw3477_tr__tr 1000ms linear infinite normal forwards
		}

		@keyframes e7dz8dwuw3477_tr__tr {
			0% {
				transform: translate(58px, 44px) rotate(0deg)
			}

			100% {
				transform: translate(58px, 44px) rotate(360deg)
			}
		}
		]]>
	</style>
	<g id="e7dz8dwuw3472">
		<g id="e7dz8dwuw3473" transform="matrix(1 0 0 1 -86 -208)">
			<g id="e7dz8dwuw3474" transform="matrix(1 0 0 1 86 208)">
				<rect id="e7dz8dwuw3475" width="115" height="110" rx="8" ry="0" fill="rgb(0,0,0)" fill-opacity="0.6" fill-rule="evenodd" stroke="none" stroke-width="1" /><text id="e7dz8dwuw3476" dx="0" dy="0" font-family="PingFangSC-Medium, &quot;PingFang SC&quot;" font-size="12" transform="matrix(1 0 0 1 40 96)" fill="rgb(255,255,255)" fill-rule="evenodd" stroke="none" stroke-width="1"><![CDATA[
                    加载中
                ]]></text>
				<g id="e7dz8dwuw3477_tr" transform="translate(58,44) rotate(0)">
					<g id="e7dz8dwuw3477" transform="translate(-18,-18)">
						<line id="e7dz8dwuw3478" x1="18" y1="0" x2="18" y2="6.400000" opacity="0.6" fill="none" fill-rule="evenodd" stroke="rgb(255,255,255)" stroke-width="3" stroke-linecap="round" stroke-linejoin="round" />
						<line id="e7dz8dwuw3479" x1="25.400000" y1="1.982824" x2="25.400000" y2="8.382824" transform="matrix(0.86602500000000 0.50000000000000 -0.50000000000000 0.86602500000000 5.99437000000000 -12.00560000000000)" opacity="0.75" fill="none" fill-rule="evenodd" stroke="rgb(255,255,255)" stroke-width="3" stroke-linecap="round" stroke-linejoin="round" />
						<line id="e7dz8dwuw34710" x1="30.817176" y1="7.400000" x2="30.817176" y2="13.800000" transform="matrix(0.50000000000000 0.86602500000000 -0.86602500000000 0.50000000000000 24.58850000000000 -21.38850000000000)" opacity="0.8" fill="none" fill-rule="evenodd" stroke="rgb(255,255,255)" stroke-width="3" stroke-linecap="round" stroke-linejoin="round" />
						<line id="e7dz8dwuw34711" x1="32.800000" y1="14.800000" x2="32.800000" y2="21.200000" transform="matrix(0 1 -1 0 50.80000000000000 -14.80000000000000)" opacity="0.9" fill="none" fill-rule="evenodd" stroke="rgb(255,255,255)" stroke-width="3" stroke-linecap="round" stroke-linejoin="round" />
						<line id="e7dz8dwuw34712" x1="30.817176" y1="22.200000" x2="30.817176" y2="28.600000" transform="matrix(-0.50000000000000 0.86602500000000 -0.86602500000000 -0.50000000000000 68.22280000000001 11.41150000000000)" opacity="0.05" fill="none" fill-rule="evenodd" stroke="rgb(255,255,255)" stroke-width="3" stroke-linecap="round" stroke-linejoin="round" />
						<line id="e7dz8dwuw34713" x1="25.400000" y1="27.617176" x2="25.400000" y2="34.017176" transform="matrix(-0.86602500000000 0.50000000000000 -0.50000000000000 -0.86602500000000 62.80560000000000 44.80560000000000)" opacity="0.1" fill="none" fill-rule="evenodd" stroke="rgb(255,255,255)" stroke-width="3" stroke-linecap="round" stroke-linejoin="round" />
						<line id="e7dz8dwuw34714" x1="18" y1="29.600000" x2="18" y2="36" transform="matrix(-1 0 -0 -1 36 65.59999999999999)" opacity="0.15" fill="none" fill-rule="evenodd" stroke="rgb(255,255,255)" stroke-width="3" stroke-linecap="round" stroke-linejoin="round" />
						<line id="e7dz8dwuw34715" x1="10.600000" y1="27.617176" x2="10.600000" y2="34.017176" transform="matrix(-0.86602500000000 -0.50000000000000 0.50000000000000 -0.86602500000000 4.37128000000000 62.80560000000000)" opacity="0.2" fill="none" fill-rule="evenodd" stroke="rgb(255,255,255)" stroke-width="3" stroke-linecap="round" stroke-linejoin="round" />
						<line id="e7dz8dwuw34716" x1="5.182824" y1="22.200000" x2="5.182824" y2="28.600000" transform="matrix(-0.50000000000000 -0.86602500000000 0.86602500000000 -0.50000000000000 -14.22280000000000 42.58850000000000)" opacity="0.25" fill="none" fill-rule="evenodd" stroke="rgb(255,255,255)" stroke-width="3" stroke-linecap="round" stroke-linejoin="round" />
						<line id="e7dz8dwuw34717" x1="3.200000" y1="14.800000" x2="3.200000" y2="21.200000" transform="matrix(0 -1 1 0 -14.80000000000000 21.20000000000000)" opacity="0.3" fill="none" fill-rule="evenodd" stroke="rgb(255,255,255)" stroke-width="3" stroke-linecap="round" stroke-linejoin="round" />
						<line id="e7dz8dwuw34718" x1="5.182824" y1="7.400000" x2="5.182824" y2="13.800000" transform="matrix(0.50000000000000 -0.86602500000000 0.86602500000000 0.50000000000000 -6.58846000000000 9.78846000000000)" opacity="0.4" fill="none" fill-rule="evenodd" stroke="rgb(255,255,255)" stroke-width="3" stroke-linecap="round" stroke-linejoin="round" />
						<line id="e7dz8dwuw34719" x1="10.600000" y1="1.982824" x2="10.600000" y2="8.382824" transform="matrix(0.86602500000000 -0.50000000000000 0.50000000000000 0.86602500000000 -1.17128000000000 5.99437000000000)" opacity="0.5" fill="none" fill-rule="evenodd" stroke="rgb(255,255,255)" stroke-width="3" stroke-linecap="round" stroke-linejoin="round" />
					</g>
				</g>
			</g>
		</g>
	</g>
</svg>